:SAMPLES-PER-SECOND 30
:FULLY-SPECIFIED
:DEGREES
675
root  -42.8533 33.1011 -16.0178 17.1693 -48.9993 -11.0433
RightUpLeg  -28.9023 0.762462 3.92972
RightLeg  12.8469 6.9962 1.12697
RightFoot  15.4869 -0.147236 1.58827
RightToes  -33.1463 -0.166176 -0.273228
Spine  -2.45306 -3.68177 3.63782
Spine1  -5.46556 -8.80815 8.73758
HEad  -41.2442 9.24129 4.56884
LeftShoulder1  -1.94126e-019 -3.10601e-018 -2.51263e-017
LeftArm  -15.7244 25.6435 -75.1132
LeftForeArm  30.4133 -47.1886 -9.95176
LeftHand  -0.448522 -1.27914 7.96177
RightShoulder  -4.96962e-017 0 -2.36833e-017
RightArm  -54.7788 -41.9906 64.3699
RightForeArm  71.3827 2.4211 0.360341
RightHand  -0.117128 -4.29169 -10.7826
LeftUpLeg  0.179876 -4.78103 1.21839
LeftLeg  25.1887 12.875 5.01432
LeftFoot  -21.3462 -0.952226 -4.8878
LeftToes  8.6571 1.87998e-006 4.79886e-008
676
root  -44.1734 33.0466 -15.3697 20.1118 -48.9872 -15.3139
RightUpLeg  -29.7774 2.44293 6.94054
RightLeg  19.9154 5.98056 1.73603
RightFoot  10.8244 -0.0366601 0.898859
RightToes  -31.4627 -0.154122 -0.262003
Spine  -2.37175 -3.28356 4.73808
Spine1  -5.4908 -7.79321 10.709
HEad  -40.4125 10.3883 4.07884
LeftShoulder1  -1.94126e-019 -3.10601e-018 -2.51263e-017
LeftArm  -18.5665 26.0273 -77.3998
LeftForeArm  31.7803 -47.6281 -10.0314
LeftHand  -0.517993 -1.58144 8.79702
RightShoulder  -4.96962e-017 0 -2.36833e-017
RightArm  -55.0756 -38.3218 63.4062
RightForeArm  72.2345 2.36566 0.350311
RightHand  -0.0330303 -5.24052 -12.2055
LeftUpLeg  -0.787096 -2.31197 4.69105
LeftLeg  32.5165 12.0172 6.53419
LeftFoot  -19.3601 -0.794311 -4.49264
LeftToes  -2.61195 1.87998e-006 4.79886e-008
677
root  -45.4343 33.214 -14.6072 20.8135 -48.3152 -17.1299
RightUpLeg  -27.6555 1.47081 8.79803
RightLeg  21.9785 6.65823 2.19297
RightFoot  7.76277 -0.0168149 0.75523
RightToes  -31.3342 -0.153216 -0.261131
Spine  -2.13724 -2.92866 5.35886
Spine1  -4.97326 -6.71449 11.7042
HEad  -39.2479 10.7433 3.69681
LeftShoulder1  -1.94126e-019 -3.10601e-018 -2.51263e-017
LeftArm  -21.781 26.2131 -80.3802
LeftForeArm  31.9736 -46.3664 -9.53656
LeftHand  -0.57428 -1.32965 10.0785
RightShoulder  -4.96962e-017 0 -2.36833e-017
RightArm  -56.0456 -34.5925 63.8683
RightForeArm  71.4553 3.4417 0.541479
RightHand  -0.0171337 -5.38481 -13.5195
LeftUpLeg  -3.23427 1.19678 7.02996
LeftLeg  41.4903 12.3182 9.39255
LeftFoot  -7.40106 -0.145513 -2.08801
LeftToes  -44.8195 1.87998e-006 4.79886e-008
678
root  -46.5753 33.4725 -13.7946 19.063 -46.5467 -16.371
RightUpLeg  -23.2552 -0.577673 9.05613
RightLeg  20.2167 6.79206 2.0093
RightFoot  5.58874 -0.00242667 0.599641
RightToes  -31.5196 -0.153597 -0.261498
Spine  -1.78223 -2.82726 5.31036
Spine1  -4.08242 -6.16441 11.4373
HEad  -38.6758 9.84629 4.20206
LeftShoulder1  -1.94126e-019 -3.10601e-018 -2.51263e-017
LeftArm  -21.8868 26.1465 -82.0035
LeftForeArm  29.1679 -44.5025 -9.04913
LeftHand  -0.533313 -0.481403 10.6518
RightShoulder  -4.96962e-017 0 -2.36833e-017
RightArm  -54.6875 -31.4125 65.9394
RightForeArm  67.1111 6.23199 1.04039
RightHand  -0.146214 -4.22575 -13.2685
LeftUpLeg  -6.97789 5.42154 8.28552
LeftLeg  51.2748 11.7239 12.5334
LeftFoot  4.29477 -0.0403271 1.23702
LeftToes  -52.2096 1.87998e-006 4.79886e-008
